<mxfile host="app.diagrams.net" modified="2021-03-24T10:56:04.521Z" agent="5.0 (Macintosh; Intel Mac OS X 10_15_6) AppleWebKit/605.1.15 (KHTML, like Gecko) Version/14.0.3 Safari/605.1.15" etag="v5qh-6w8DJCAxjaApTEb" version="14.5.1" type="github" pages="2">
  <diagram id="C5RBs43oDa-KdzZeNtuy" name="Page-1">
    <mxGraphModel dx="1433" dy="1210" grid="1" gridSize="10" guides="1" tooltips="1" connect="1" arrows="1" fold="1" page="1" pageScale="1" pageWidth="1169" pageHeight="827" math="0" shadow="0">
      <root>
        <mxCell id="WIyWlLk6GJQsqaUBKTNV-0" />
        <mxCell id="WIyWlLk6GJQsqaUBKTNV-1" parent="WIyWlLk6GJQsqaUBKTNV-0" />
        <mxCell id="aOM7xUkGAbq8pq7ayEXu-1" value="User Account" style="rounded=0;whiteSpace=wrap;html=1;direction=west;" vertex="1" parent="WIyWlLk6GJQsqaUBKTNV-1">
          <mxGeometry x="210" y="140" width="120" height="60" as="geometry" />
        </mxCell>
        <mxCell id="aOM7xUkGAbq8pq7ayEXu-3" value="Alarm" style="rounded=0;whiteSpace=wrap;html=1;" vertex="1" parent="WIyWlLk6GJQsqaUBKTNV-1">
          <mxGeometry x="770" y="120" width="120" height="60" as="geometry" />
        </mxCell>
        <mxCell id="aOM7xUkGAbq8pq7ayEXu-4" value="Team" style="rounded=0;whiteSpace=wrap;html=1;" vertex="1" parent="WIyWlLk6GJQsqaUBKTNV-1">
          <mxGeometry x="750" y="537" width="120" height="60" as="geometry" />
        </mxCell>
        <mxCell id="aOM7xUkGAbq8pq7ayEXu-5" value="Comment" style="rounded=0;whiteSpace=wrap;html=1;" vertex="1" parent="WIyWlLk6GJQsqaUBKTNV-1">
          <mxGeometry x="220" y="550" width="120" height="60" as="geometry" />
        </mxCell>
        <mxCell id="aOM7xUkGAbq8pq7ayEXu-6" value="&lt;u&gt;Id&lt;/u&gt;" style="ellipse;whiteSpace=wrap;html=1;" vertex="1" parent="WIyWlLk6GJQsqaUBKTNV-1">
          <mxGeometry x="1000" y="30" width="100" height="70" as="geometry" />
        </mxCell>
        <mxCell id="aOM7xUkGAbq8pq7ayEXu-13" value="Type" style="ellipse;whiteSpace=wrap;html=1;" vertex="1" parent="WIyWlLk6GJQsqaUBKTNV-1">
          <mxGeometry x="1030" y="120" width="100" height="70" as="geometry" />
        </mxCell>
        <mxCell id="aOM7xUkGAbq8pq7ayEXu-14" value="Date" style="ellipse;whiteSpace=wrap;html=1;" vertex="1" parent="WIyWlLk6GJQsqaUBKTNV-1">
          <mxGeometry x="1040" y="205" width="100" height="70" as="geometry" />
        </mxCell>
        <mxCell id="aOM7xUkGAbq8pq7ayEXu-15" value="Password" style="ellipse;whiteSpace=wrap;html=1;" vertex="1" parent="WIyWlLk6GJQsqaUBKTNV-1">
          <mxGeometry x="50" y="205" width="100" height="70" as="geometry" />
        </mxCell>
        <mxCell id="aOM7xUkGAbq8pq7ayEXu-16" value="NickName" style="ellipse;whiteSpace=wrap;html=1;" vertex="1" parent="WIyWlLk6GJQsqaUBKTNV-1">
          <mxGeometry x="50" y="120" width="100" height="70" as="geometry" />
        </mxCell>
        <mxCell id="aOM7xUkGAbq8pq7ayEXu-17" value="&lt;u&gt;Id&lt;/u&gt;" style="ellipse;whiteSpace=wrap;html=1;" vertex="1" parent="WIyWlLk6GJQsqaUBKTNV-1">
          <mxGeometry x="50" y="40" width="100" height="70" as="geometry" />
        </mxCell>
        <mxCell id="aOM7xUkGAbq8pq7ayEXu-18" value="Id" style="ellipse;whiteSpace=wrap;html=1;" vertex="1" parent="WIyWlLk6GJQsqaUBKTNV-1">
          <mxGeometry x="120" y="670" width="100" height="70" as="geometry" />
        </mxCell>
        <mxCell id="aOM7xUkGAbq8pq7ayEXu-19" value="Date" style="ellipse;whiteSpace=wrap;html=1;" vertex="1" parent="WIyWlLk6GJQsqaUBKTNV-1">
          <mxGeometry x="240" y="680" width="100" height="70" as="geometry" />
        </mxCell>
        <mxCell id="aOM7xUkGAbq8pq7ayEXu-20" value="Content" style="ellipse;whiteSpace=wrap;html=1;" vertex="1" parent="WIyWlLk6GJQsqaUBKTNV-1">
          <mxGeometry x="360" y="660" width="100" height="70" as="geometry" />
        </mxCell>
        <mxCell id="aOM7xUkGAbq8pq7ayEXu-21" value="Date" style="ellipse;whiteSpace=wrap;html=1;" vertex="1" parent="WIyWlLk6GJQsqaUBKTNV-1">
          <mxGeometry x="1060" y="490" width="100" height="70" as="geometry" />
        </mxCell>
        <mxCell id="aOM7xUkGAbq8pq7ayEXu-22" value="&lt;u&gt;Id&lt;/u&gt;" style="ellipse;whiteSpace=wrap;html=1;" vertex="1" parent="WIyWlLk6GJQsqaUBKTNV-1">
          <mxGeometry x="1060" y="405" width="100" height="70" as="geometry" />
        </mxCell>
        <mxCell id="aOM7xUkGAbq8pq7ayEXu-23" value="Category" style="ellipse;whiteSpace=wrap;html=1;" vertex="1" parent="WIyWlLk6GJQsqaUBKTNV-1">
          <mxGeometry x="1020" y="580" width="100" height="70" as="geometry" />
        </mxCell>
        <mxCell id="aOM7xUkGAbq8pq7ayEXu-24" value="Number of Member" style="ellipse;whiteSpace=wrap;html=1;" vertex="1" parent="WIyWlLk6GJQsqaUBKTNV-1">
          <mxGeometry x="1000" y="660" width="100" height="70" as="geometry" />
        </mxCell>
        <mxCell id="aOM7xUkGAbq8pq7ayEXu-25" value="Introduction" style="ellipse;whiteSpace=wrap;html=1;" vertex="1" parent="WIyWlLk6GJQsqaUBKTNV-1">
          <mxGeometry x="920" y="720" width="100" height="70" as="geometry" />
        </mxCell>
        <mxCell id="aOM7xUkGAbq8pq7ayEXu-26" value="Limit" style="ellipse;whiteSpace=wrap;html=1;" vertex="1" parent="WIyWlLk6GJQsqaUBKTNV-1">
          <mxGeometry x="800" y="730" width="100" height="70" as="geometry" />
        </mxCell>
        <mxCell id="aOM7xUkGAbq8pq7ayEXu-27" value="Status" style="ellipse;whiteSpace=wrap;html=1;" vertex="1" parent="WIyWlLk6GJQsqaUBKTNV-1">
          <mxGeometry x="680" y="720" width="100" height="70" as="geometry" />
        </mxCell>
        <mxCell id="aOM7xUkGAbq8pq7ayEXu-28" value="Title" style="ellipse;whiteSpace=wrap;html=1;" vertex="1" parent="WIyWlLk6GJQsqaUBKTNV-1">
          <mxGeometry x="570" y="687" width="100" height="70" as="geometry" />
        </mxCell>
        <mxCell id="QgHLMDbDzzbALMVeo9zM-8" value="" style="endArrow=none;html=1;entryX=1;entryY=0.5;entryDx=0;entryDy=0;exitX=1;exitY=0.5;exitDx=0;exitDy=0;" edge="1" parent="WIyWlLk6GJQsqaUBKTNV-1" source="aOM7xUkGAbq8pq7ayEXu-1" target="aOM7xUkGAbq8pq7ayEXu-17">
          <mxGeometry width="50" height="50" relative="1" as="geometry">
            <mxPoint x="380" y="150" as="sourcePoint" />
            <mxPoint x="580" y="360" as="targetPoint" />
          </mxGeometry>
        </mxCell>
        <mxCell id="QgHLMDbDzzbALMVeo9zM-9" value="" style="endArrow=none;html=1;entryX=1;entryY=0.5;entryDx=0;entryDy=0;" edge="1" parent="WIyWlLk6GJQsqaUBKTNV-1" target="aOM7xUkGAbq8pq7ayEXu-16">
          <mxGeometry width="50" height="50" relative="1" as="geometry">
            <mxPoint x="210" y="170" as="sourcePoint" />
            <mxPoint x="160" y="85" as="targetPoint" />
          </mxGeometry>
        </mxCell>
        <mxCell id="QgHLMDbDzzbALMVeo9zM-10" value="" style="endArrow=none;html=1;entryX=1;entryY=0.5;entryDx=0;entryDy=0;" edge="1" parent="WIyWlLk6GJQsqaUBKTNV-1" target="aOM7xUkGAbq8pq7ayEXu-15">
          <mxGeometry width="50" height="50" relative="1" as="geometry">
            <mxPoint x="210" y="170" as="sourcePoint" />
            <mxPoint x="160" y="165" as="targetPoint" />
          </mxGeometry>
        </mxCell>
        <mxCell id="QgHLMDbDzzbALMVeo9zM-11" value="" style="endArrow=none;html=1;entryX=0.5;entryY=1;entryDx=0;entryDy=0;exitX=1;exitY=0.5;exitDx=0;exitDy=0;" edge="1" parent="WIyWlLk6GJQsqaUBKTNV-1" source="aOM7xUkGAbq8pq7ayEXu-3" target="aOM7xUkGAbq8pq7ayEXu-6">
          <mxGeometry width="50" height="50" relative="1" as="geometry">
            <mxPoint x="880" y="230" as="sourcePoint" />
            <mxPoint x="480" y="275" as="targetPoint" />
          </mxGeometry>
        </mxCell>
        <mxCell id="QgHLMDbDzzbALMVeo9zM-12" value="" style="endArrow=none;html=1;entryX=0;entryY=0.5;entryDx=0;entryDy=0;exitX=1;exitY=0.5;exitDx=0;exitDy=0;" edge="1" parent="WIyWlLk6GJQsqaUBKTNV-1" source="aOM7xUkGAbq8pq7ayEXu-3" target="aOM7xUkGAbq8pq7ayEXu-13">
          <mxGeometry width="50" height="50" relative="1" as="geometry">
            <mxPoint x="820" y="200" as="sourcePoint" />
            <mxPoint x="720" y="120" as="targetPoint" />
          </mxGeometry>
        </mxCell>
        <mxCell id="QgHLMDbDzzbALMVeo9zM-13" value="" style="endArrow=none;html=1;entryX=0;entryY=0;entryDx=0;entryDy=0;exitX=1;exitY=0.5;exitDx=0;exitDy=0;" edge="1" parent="WIyWlLk6GJQsqaUBKTNV-1" source="aOM7xUkGAbq8pq7ayEXu-3" target="aOM7xUkGAbq8pq7ayEXu-14">
          <mxGeometry width="50" height="50" relative="1" as="geometry">
            <mxPoint x="840" y="220" as="sourcePoint" />
            <mxPoint x="730" y="130" as="targetPoint" />
          </mxGeometry>
        </mxCell>
        <mxCell id="QgHLMDbDzzbALMVeo9zM-14" value="" style="endArrow=none;html=1;entryX=0.5;entryY=1;entryDx=0;entryDy=0;exitX=1;exitY=0.5;exitDx=0;exitDy=0;" edge="1" parent="WIyWlLk6GJQsqaUBKTNV-1" source="aOM7xUkGAbq8pq7ayEXu-4" target="aOM7xUkGAbq8pq7ayEXu-22">
          <mxGeometry width="50" height="50" relative="1" as="geometry">
            <mxPoint x="720" y="517" as="sourcePoint" />
            <mxPoint x="840" y="427" as="targetPoint" />
          </mxGeometry>
        </mxCell>
        <mxCell id="QgHLMDbDzzbALMVeo9zM-15" value="" style="endArrow=none;html=1;exitX=1;exitY=0.5;exitDx=0;exitDy=0;entryX=0;entryY=0.5;entryDx=0;entryDy=0;" edge="1" parent="WIyWlLk6GJQsqaUBKTNV-1" source="aOM7xUkGAbq8pq7ayEXu-4" target="aOM7xUkGAbq8pq7ayEXu-21">
          <mxGeometry width="50" height="50" relative="1" as="geometry">
            <mxPoint x="830" y="547" as="sourcePoint" />
            <mxPoint x="950" y="467" as="targetPoint" />
          </mxGeometry>
        </mxCell>
        <mxCell id="QgHLMDbDzzbALMVeo9zM-16" value="" style="endArrow=none;html=1;entryX=0;entryY=0.5;entryDx=0;entryDy=0;exitX=1;exitY=0.5;exitDx=0;exitDy=0;" edge="1" parent="WIyWlLk6GJQsqaUBKTNV-1" source="aOM7xUkGAbq8pq7ayEXu-4" target="aOM7xUkGAbq8pq7ayEXu-23">
          <mxGeometry width="50" height="50" relative="1" as="geometry">
            <mxPoint x="810" y="537" as="sourcePoint" />
            <mxPoint x="970" y="467" as="targetPoint" />
          </mxGeometry>
        </mxCell>
        <mxCell id="QgHLMDbDzzbALMVeo9zM-17" value="" style="endArrow=none;html=1;entryX=0;entryY=0.5;entryDx=0;entryDy=0;exitX=0.5;exitY=1;exitDx=0;exitDy=0;" edge="1" parent="WIyWlLk6GJQsqaUBKTNV-1" source="aOM7xUkGAbq8pq7ayEXu-4" target="aOM7xUkGAbq8pq7ayEXu-24">
          <mxGeometry width="50" height="50" relative="1" as="geometry">
            <mxPoint x="830" y="547" as="sourcePoint" />
            <mxPoint x="990.0000000000086" y="502" as="targetPoint" />
          </mxGeometry>
        </mxCell>
        <mxCell id="QgHLMDbDzzbALMVeo9zM-18" value="" style="endArrow=none;html=1;entryX=0.5;entryY=0;entryDx=0;entryDy=0;exitX=0.5;exitY=1;exitDx=0;exitDy=0;" edge="1" parent="WIyWlLk6GJQsqaUBKTNV-1" source="aOM7xUkGAbq8pq7ayEXu-4" target="aOM7xUkGAbq8pq7ayEXu-25">
          <mxGeometry width="50" height="50" relative="1" as="geometry">
            <mxPoint x="880" y="577" as="sourcePoint" />
            <mxPoint x="1010.0000000000086" y="577" as="targetPoint" />
          </mxGeometry>
        </mxCell>
        <mxCell id="QgHLMDbDzzbALMVeo9zM-19" value="" style="endArrow=none;html=1;entryX=0;entryY=0;entryDx=0;entryDy=0;" edge="1" parent="WIyWlLk6GJQsqaUBKTNV-1" target="aOM7xUkGAbq8pq7ayEXu-26">
          <mxGeometry width="50" height="50" relative="1" as="geometry">
            <mxPoint x="810" y="600" as="sourcePoint" />
            <mxPoint x="1000" y="662" as="targetPoint" />
          </mxGeometry>
        </mxCell>
        <mxCell id="QgHLMDbDzzbALMVeo9zM-20" value="" style="endArrow=none;html=1;entryX=0.5;entryY=0;entryDx=0;entryDy=0;exitX=0.5;exitY=1;exitDx=0;exitDy=0;" edge="1" parent="WIyWlLk6GJQsqaUBKTNV-1" source="aOM7xUkGAbq8pq7ayEXu-4" target="aOM7xUkGAbq8pq7ayEXu-27">
          <mxGeometry width="50" height="50" relative="1" as="geometry">
            <mxPoint x="890" y="587" as="sourcePoint" />
            <mxPoint x="1010" y="672" as="targetPoint" />
          </mxGeometry>
        </mxCell>
        <mxCell id="QgHLMDbDzzbALMVeo9zM-21" value="" style="endArrow=none;html=1;entryX=0.5;entryY=0;entryDx=0;entryDy=0;exitX=0.5;exitY=1;exitDx=0;exitDy=0;" edge="1" parent="WIyWlLk6GJQsqaUBKTNV-1" source="aOM7xUkGAbq8pq7ayEXu-4" target="aOM7xUkGAbq8pq7ayEXu-28">
          <mxGeometry width="50" height="50" relative="1" as="geometry">
            <mxPoint x="870" y="577" as="sourcePoint" />
            <mxPoint x="1020" y="682" as="targetPoint" />
          </mxGeometry>
        </mxCell>
        <mxCell id="QgHLMDbDzzbALMVeo9zM-22" value="" style="endArrow=none;html=1;entryX=0.5;entryY=0;entryDx=0;entryDy=0;exitX=0.5;exitY=1;exitDx=0;exitDy=0;" edge="1" parent="WIyWlLk6GJQsqaUBKTNV-1" source="aOM7xUkGAbq8pq7ayEXu-5" target="aOM7xUkGAbq8pq7ayEXu-18">
          <mxGeometry width="50" height="50" relative="1" as="geometry">
            <mxPoint x="250" y="600" as="sourcePoint" />
            <mxPoint x="190" y="670" as="targetPoint" />
          </mxGeometry>
        </mxCell>
        <mxCell id="QgHLMDbDzzbALMVeo9zM-23" value="" style="endArrow=none;html=1;entryX=0.5;entryY=0;entryDx=0;entryDy=0;exitX=0.5;exitY=1;exitDx=0;exitDy=0;" edge="1" parent="WIyWlLk6GJQsqaUBKTNV-1" source="aOM7xUkGAbq8pq7ayEXu-5" target="aOM7xUkGAbq8pq7ayEXu-19">
          <mxGeometry width="50" height="50" relative="1" as="geometry">
            <mxPoint x="290" y="620" as="sourcePoint" />
            <mxPoint x="180" y="680" as="targetPoint" />
          </mxGeometry>
        </mxCell>
        <mxCell id="QgHLMDbDzzbALMVeo9zM-24" value="" style="endArrow=none;html=1;entryX=0.5;entryY=0;entryDx=0;entryDy=0;exitX=0.5;exitY=1;exitDx=0;exitDy=0;" edge="1" parent="WIyWlLk6GJQsqaUBKTNV-1" source="aOM7xUkGAbq8pq7ayEXu-5" target="aOM7xUkGAbq8pq7ayEXu-20">
          <mxGeometry width="50" height="50" relative="1" as="geometry">
            <mxPoint x="290" y="620" as="sourcePoint" />
            <mxPoint x="300" y="690" as="targetPoint" />
          </mxGeometry>
        </mxCell>
        <mxCell id="QgHLMDbDzzbALMVeo9zM-25" value="Target" style="rhombus;whiteSpace=wrap;html=1;" vertex="1" parent="WIyWlLk6GJQsqaUBKTNV-1">
          <mxGeometry x="460" y="80" width="110" height="80" as="geometry" />
        </mxCell>
        <mxCell id="QgHLMDbDzzbALMVeo9zM-26" value="Contain" style="rhombus;whiteSpace=wrap;html=1;" vertex="1" parent="WIyWlLk6GJQsqaUBKTNV-1">
          <mxGeometry x="460" y="190" width="110" height="80" as="geometry" />
        </mxCell>
        <mxCell id="QgHLMDbDzzbALMVeo9zM-27" value="Write" style="rhombus;whiteSpace=wrap;html=1;" vertex="1" parent="WIyWlLk6GJQsqaUBKTNV-1">
          <mxGeometry x="210" y="325" width="110" height="80" as="geometry" />
        </mxCell>
        <mxCell id="QgHLMDbDzzbALMVeo9zM-28" value="Target" style="rhombus;whiteSpace=wrap;html=1;" vertex="1" parent="WIyWlLk6GJQsqaUBKTNV-1">
          <mxGeometry x="770" y="340" width="110" height="80" as="geometry" />
        </mxCell>
        <mxCell id="QgHLMDbDzzbALMVeo9zM-29" value="Owner" style="rhombus;whiteSpace=wrap;html=1;" vertex="1" parent="WIyWlLk6GJQsqaUBKTNV-1">
          <mxGeometry x="460" y="305" width="110" height="80" as="geometry" />
        </mxCell>
        <mxCell id="QgHLMDbDzzbALMVeo9zM-30" value="Member" style="rhombus;whiteSpace=wrap;html=1;" vertex="1" parent="WIyWlLk6GJQsqaUBKTNV-1">
          <mxGeometry x="460" y="440" width="110" height="80" as="geometry" />
        </mxCell>
        <mxCell id="QgHLMDbDzzbALMVeo9zM-31" value="Contain" style="rhombus;whiteSpace=wrap;html=1;" vertex="1" parent="WIyWlLk6GJQsqaUBKTNV-1">
          <mxGeometry x="460" y="550" width="110" height="80" as="geometry" />
        </mxCell>
        <mxCell id="QgHLMDbDzzbALMVeo9zM-32" value="Contain" style="rhombus;whiteSpace=wrap;html=1;" vertex="1" parent="WIyWlLk6GJQsqaUBKTNV-1">
          <mxGeometry y="550" width="110" height="60" as="geometry" />
        </mxCell>
        <mxCell id="QgHLMDbDzzbALMVeo9zM-33" value="" style="endArrow=none;html=1;entryX=0;entryY=0.5;entryDx=0;entryDy=0;exitX=0;exitY=0.5;exitDx=0;exitDy=0;" edge="1" parent="WIyWlLk6GJQsqaUBKTNV-1" source="aOM7xUkGAbq8pq7ayEXu-1" target="QgHLMDbDzzbALMVeo9zM-25">
          <mxGeometry width="50" height="50" relative="1" as="geometry">
            <mxPoint x="540" y="620" as="sourcePoint" />
            <mxPoint x="590" y="570" as="targetPoint" />
          </mxGeometry>
        </mxCell>
        <mxCell id="QgHLMDbDzzbALMVeo9zM-34" value="" style="endArrow=none;html=1;entryX=0;entryY=0.5;entryDx=0;entryDy=0;exitX=1;exitY=0.5;exitDx=0;exitDy=0;" edge="1" parent="WIyWlLk6GJQsqaUBKTNV-1" source="QgHLMDbDzzbALMVeo9zM-25" target="aOM7xUkGAbq8pq7ayEXu-3">
          <mxGeometry width="50" height="50" relative="1" as="geometry">
            <mxPoint x="250" y="365" as="sourcePoint" />
            <mxPoint x="237.5" y="220" as="targetPoint" />
          </mxGeometry>
        </mxCell>
        <mxCell id="QgHLMDbDzzbALMVeo9zM-36" value="" style="endArrow=none;html=1;entryX=0;entryY=0.5;entryDx=0;entryDy=0;exitX=0;exitY=0.5;exitDx=0;exitDy=0;" edge="1" parent="WIyWlLk6GJQsqaUBKTNV-1" source="QgHLMDbDzzbALMVeo9zM-69" target="QgHLMDbDzzbALMVeo9zM-26">
          <mxGeometry width="50" height="50" relative="1" as="geometry">
            <mxPoint x="340" y="170" as="sourcePoint" />
            <mxPoint x="470" y="130" as="targetPoint" />
          </mxGeometry>
        </mxCell>
        <mxCell id="QgHLMDbDzzbALMVeo9zM-37" value="" style="endArrow=none;html=1;entryX=0;entryY=0.5;entryDx=0;entryDy=0;exitX=1;exitY=0.5;exitDx=0;exitDy=0;" edge="1" parent="WIyWlLk6GJQsqaUBKTNV-1" source="QgHLMDbDzzbALMVeo9zM-26" target="aOM7xUkGAbq8pq7ayEXu-3">
          <mxGeometry width="50" height="50" relative="1" as="geometry">
            <mxPoint x="585" y="240" as="sourcePoint" />
            <mxPoint x="715" y="190" as="targetPoint" />
          </mxGeometry>
        </mxCell>
        <mxCell id="QgHLMDbDzzbALMVeo9zM-38" value="" style="endArrow=none;html=1;exitX=1;exitY=0.5;exitDx=0;exitDy=0;entryX=0;entryY=0.5;entryDx=0;entryDy=0;" edge="1" parent="WIyWlLk6GJQsqaUBKTNV-1" source="QgHLMDbDzzbALMVeo9zM-31" target="aOM7xUkGAbq8pq7ayEXu-4">
          <mxGeometry width="50" height="50" relative="1" as="geometry">
            <mxPoint x="570" y="620" as="sourcePoint" />
            <mxPoint x="620" y="570" as="targetPoint" />
          </mxGeometry>
        </mxCell>
        <mxCell id="QgHLMDbDzzbALMVeo9zM-39" value="" style="endArrow=none;html=1;exitX=1;exitY=0.5;exitDx=0;exitDy=0;entryX=0;entryY=0.5;entryDx=0;entryDy=0;" edge="1" parent="WIyWlLk6GJQsqaUBKTNV-1" source="aOM7xUkGAbq8pq7ayEXu-5" target="QgHLMDbDzzbALMVeo9zM-31">
          <mxGeometry width="50" height="50" relative="1" as="geometry">
            <mxPoint x="580" y="600" as="sourcePoint" />
            <mxPoint x="760" y="577.0000000000002" as="targetPoint" />
          </mxGeometry>
        </mxCell>
        <mxCell id="QgHLMDbDzzbALMVeo9zM-41" value="" style="endArrow=none;html=1;exitX=0.5;exitY=0;exitDx=0;exitDy=0;entryX=0.5;entryY=1;entryDx=0;entryDy=0;" edge="1" parent="WIyWlLk6GJQsqaUBKTNV-1" source="QgHLMDbDzzbALMVeo9zM-28" target="aOM7xUkGAbq8pq7ayEXu-3">
          <mxGeometry width="50" height="50" relative="1" as="geometry">
            <mxPoint x="735" y="298" as="sourcePoint" />
            <mxPoint x="915" y="275.0000000000002" as="targetPoint" />
          </mxGeometry>
        </mxCell>
        <mxCell id="QgHLMDbDzzbALMVeo9zM-42" value="" style="endArrow=none;html=1;exitX=0.5;exitY=0;exitDx=0;exitDy=0;entryX=0.5;entryY=1;entryDx=0;entryDy=0;" edge="1" parent="WIyWlLk6GJQsqaUBKTNV-1" source="aOM7xUkGAbq8pq7ayEXu-4" target="QgHLMDbDzzbALMVeo9zM-28">
          <mxGeometry width="50" height="50" relative="1" as="geometry">
            <mxPoint x="835" y="350" as="sourcePoint" />
            <mxPoint x="830" y="410" as="targetPoint" />
          </mxGeometry>
        </mxCell>
        <mxCell id="QgHLMDbDzzbALMVeo9zM-45" value="" style="endArrow=none;html=1;exitX=0.5;exitY=0;exitDx=0;exitDy=0;entryX=0.5;entryY=1;entryDx=0;entryDy=0;" edge="1" parent="WIyWlLk6GJQsqaUBKTNV-1" source="aOM7xUkGAbq8pq7ayEXu-5" target="QgHLMDbDzzbALMVeo9zM-27">
          <mxGeometry width="50" height="50" relative="1" as="geometry">
            <mxPoint x="275" y="335" as="sourcePoint" />
            <mxPoint x="280" y="210" as="targetPoint" />
          </mxGeometry>
        </mxCell>
        <mxCell id="QgHLMDbDzzbALMVeo9zM-49" value="" style="endArrow=none;html=1;exitX=0;exitY=0;exitDx=0;exitDy=0;entryX=1;entryY=0.5;entryDx=0;entryDy=0;" edge="1" parent="WIyWlLk6GJQsqaUBKTNV-1" source="aOM7xUkGAbq8pq7ayEXu-4" target="QgHLMDbDzzbALMVeo9zM-29">
          <mxGeometry width="50" height="50" relative="1" as="geometry">
            <mxPoint x="310" y="210" as="sourcePoint" />
            <mxPoint x="470" y="370" as="targetPoint" />
          </mxGeometry>
        </mxCell>
        <mxCell id="QgHLMDbDzzbALMVeo9zM-50" value="" style="endArrow=none;html=1;exitX=0;exitY=0;exitDx=0;exitDy=0;entryX=0;entryY=0.5;entryDx=0;entryDy=0;" edge="1" parent="WIyWlLk6GJQsqaUBKTNV-1" source="aOM7xUkGAbq8pq7ayEXu-1" target="QgHLMDbDzzbALMVeo9zM-30">
          <mxGeometry width="50" height="50" relative="1" as="geometry">
            <mxPoint x="310" y="210" as="sourcePoint" />
            <mxPoint x="470" y="370" as="targetPoint" />
          </mxGeometry>
        </mxCell>
        <mxCell id="QgHLMDbDzzbALMVeo9zM-52" value="" style="endArrow=none;html=1;exitX=0.5;exitY=0;exitDx=0;exitDy=0;entryX=0.5;entryY=0;entryDx=0;entryDy=0;" edge="1" parent="WIyWlLk6GJQsqaUBKTNV-1" source="QgHLMDbDzzbALMVeo9zM-32" target="aOM7xUkGAbq8pq7ayEXu-5">
          <mxGeometry width="50" height="50" relative="1" as="geometry">
            <mxPoint x="570" y="620" as="sourcePoint" />
            <mxPoint x="620" y="570" as="targetPoint" />
          </mxGeometry>
        </mxCell>
        <mxCell id="QgHLMDbDzzbALMVeo9zM-53" value="" style="endArrow=none;html=1;exitX=0.5;exitY=1;exitDx=0;exitDy=0;entryX=0.25;entryY=1;entryDx=0;entryDy=0;" edge="1" parent="WIyWlLk6GJQsqaUBKTNV-1" source="QgHLMDbDzzbALMVeo9zM-32" target="aOM7xUkGAbq8pq7ayEXu-5">
          <mxGeometry width="50" height="50" relative="1" as="geometry">
            <mxPoint x="65" y="560" as="sourcePoint" />
            <mxPoint x="290" y="560" as="targetPoint" />
          </mxGeometry>
        </mxCell>
        <mxCell id="QgHLMDbDzzbALMVeo9zM-60" value="&lt;font style=&quot;font-size: 14px&quot;&gt;1&lt;/font&gt;" style="text;html=1;strokeColor=none;fillColor=none;align=center;verticalAlign=middle;whiteSpace=wrap;rounded=0;" vertex="1" parent="WIyWlLk6GJQsqaUBKTNV-1">
          <mxGeometry x="420" y="260" width="60" height="40" as="geometry" />
        </mxCell>
        <mxCell id="QgHLMDbDzzbALMVeo9zM-61" value="&lt;font style=&quot;font-size: 14px&quot;&gt;1&lt;/font&gt;" style="text;html=1;strokeColor=none;fillColor=none;align=center;verticalAlign=middle;whiteSpace=wrap;rounded=0;" vertex="1" parent="WIyWlLk6GJQsqaUBKTNV-1">
          <mxGeometry x="610" y="547" width="60" height="40" as="geometry" />
        </mxCell>
        <mxCell id="QgHLMDbDzzbALMVeo9zM-62" value="&lt;span style=&quot;font-size: 14px&quot;&gt;N&lt;/span&gt;" style="text;html=1;strokeColor=none;fillColor=none;align=center;verticalAlign=middle;whiteSpace=wrap;rounded=0;" vertex="1" parent="WIyWlLk6GJQsqaUBKTNV-1">
          <mxGeometry x="370" y="550" width="60" height="40" as="geometry" />
        </mxCell>
        <mxCell id="QgHLMDbDzzbALMVeo9zM-63" value="&lt;font style=&quot;font-size: 14px&quot;&gt;1&lt;/font&gt;" style="text;html=1;strokeColor=none;fillColor=none;align=center;verticalAlign=middle;whiteSpace=wrap;rounded=0;" vertex="1" parent="WIyWlLk6GJQsqaUBKTNV-1">
          <mxGeometry x="120" y="547" width="60" height="40" as="geometry" />
        </mxCell>
        <mxCell id="QgHLMDbDzzbALMVeo9zM-64" value="&lt;span style=&quot;font-size: 14px&quot;&gt;N&lt;/span&gt;" style="text;html=1;strokeColor=none;fillColor=none;align=center;verticalAlign=middle;whiteSpace=wrap;rounded=0;" vertex="1" parent="WIyWlLk6GJQsqaUBKTNV-1">
          <mxGeometry x="120" y="580" width="60" height="40" as="geometry" />
        </mxCell>
        <mxCell id="QgHLMDbDzzbALMVeo9zM-66" value="&lt;span style=&quot;font-size: 14px&quot;&gt;1&lt;/span&gt;" style="text;html=1;strokeColor=none;fillColor=none;align=center;verticalAlign=middle;whiteSpace=wrap;rounded=0;" vertex="1" parent="WIyWlLk6GJQsqaUBKTNV-1">
          <mxGeometry x="260" y="260" width="60" height="40" as="geometry" />
        </mxCell>
        <mxCell id="QgHLMDbDzzbALMVeo9zM-68" value="&lt;span style=&quot;font-size: 14px&quot;&gt;N&lt;/span&gt;" style="text;html=1;strokeColor=none;fillColor=none;align=center;verticalAlign=middle;whiteSpace=wrap;rounded=0;" vertex="1" parent="WIyWlLk6GJQsqaUBKTNV-1">
          <mxGeometry x="260" y="440" width="60" height="40" as="geometry" />
        </mxCell>
        <mxCell id="QgHLMDbDzzbALMVeo9zM-70" value="&lt;font style=&quot;font-size: 14px&quot;&gt;N&lt;/font&gt;" style="text;html=1;strokeColor=none;fillColor=none;align=center;verticalAlign=middle;whiteSpace=wrap;rounded=0;" vertex="1" parent="WIyWlLk6GJQsqaUBKTNV-1">
          <mxGeometry x="610" y="165" width="60" height="40" as="geometry" />
        </mxCell>
        <mxCell id="QgHLMDbDzzbALMVeo9zM-69" value="&lt;font style=&quot;font-size: 14px&quot;&gt;1&lt;/font&gt;" style="text;html=1;strokeColor=none;fillColor=none;align=center;verticalAlign=middle;whiteSpace=wrap;rounded=0;" vertex="1" parent="WIyWlLk6GJQsqaUBKTNV-1">
          <mxGeometry x="390" y="180" width="60" height="40" as="geometry" />
        </mxCell>
        <mxCell id="QgHLMDbDzzbALMVeo9zM-71" value="" style="endArrow=none;html=1;entryX=0;entryY=0.5;entryDx=0;entryDy=0;exitX=0;exitY=0.5;exitDx=0;exitDy=0;" edge="1" parent="WIyWlLk6GJQsqaUBKTNV-1" source="aOM7xUkGAbq8pq7ayEXu-1" target="QgHLMDbDzzbALMVeo9zM-69">
          <mxGeometry width="50" height="50" relative="1" as="geometry">
            <mxPoint x="330" y="170" as="sourcePoint" />
            <mxPoint x="460" y="230" as="targetPoint" />
          </mxGeometry>
        </mxCell>
        <mxCell id="QgHLMDbDzzbALMVeo9zM-73" value="&lt;font style=&quot;font-size: 14px&quot;&gt;M&lt;/font&gt;" style="text;html=1;strokeColor=none;fillColor=none;align=center;verticalAlign=middle;whiteSpace=wrap;rounded=0;" vertex="1" parent="WIyWlLk6GJQsqaUBKTNV-1">
          <mxGeometry x="600" y="460" width="60" height="40" as="geometry" />
        </mxCell>
        <mxCell id="QgHLMDbDzzbALMVeo9zM-74" value="" style="endArrow=none;html=1;exitX=0.5;exitY=0;exitDx=0;exitDy=0;entryX=0.5;entryY=0;entryDx=0;entryDy=0;" edge="1" parent="WIyWlLk6GJQsqaUBKTNV-1" source="QgHLMDbDzzbALMVeo9zM-27" target="aOM7xUkGAbq8pq7ayEXu-1">
          <mxGeometry width="50" height="50" relative="1" as="geometry">
            <mxPoint x="570" y="550" as="sourcePoint" />
            <mxPoint x="620" y="500" as="targetPoint" />
          </mxGeometry>
        </mxCell>
        <mxCell id="QgHLMDbDzzbALMVeo9zM-75" value="" style="endArrow=none;html=1;entryX=0.4;entryY=0;entryDx=0;entryDy=0;entryPerimeter=0;exitX=0.609;exitY=0.146;exitDx=0;exitDy=0;exitPerimeter=0;" edge="1" parent="WIyWlLk6GJQsqaUBKTNV-1" source="QgHLMDbDzzbALMVeo9zM-27" target="aOM7xUkGAbq8pq7ayEXu-1">
          <mxGeometry width="50" height="50" relative="1" as="geometry">
            <mxPoint x="280" y="325" as="sourcePoint" />
            <mxPoint x="320" y="280" as="targetPoint" />
          </mxGeometry>
        </mxCell>
        <mxCell id="QgHLMDbDzzbALMVeo9zM-77" value="" style="endArrow=none;html=1;exitX=0;exitY=0.25;exitDx=0;exitDy=0;entryX=0;entryY=0.5;entryDx=0;entryDy=0;" edge="1" parent="WIyWlLk6GJQsqaUBKTNV-1" source="aOM7xUkGAbq8pq7ayEXu-1" target="QgHLMDbDzzbALMVeo9zM-29">
          <mxGeometry width="50" height="50" relative="1" as="geometry">
            <mxPoint x="340" y="210" as="sourcePoint" />
            <mxPoint x="470" y="490" as="targetPoint" />
          </mxGeometry>
        </mxCell>
        <mxCell id="QgHLMDbDzzbALMVeo9zM-79" value="" style="endArrow=none;html=1;entryX=0.124;entryY=0.417;entryDx=0;entryDy=0;entryPerimeter=0;" edge="1" parent="WIyWlLk6GJQsqaUBKTNV-1" target="QgHLMDbDzzbALMVeo9zM-29">
          <mxGeometry width="50" height="50" relative="1" as="geometry">
            <mxPoint x="330" y="180" as="sourcePoint" />
            <mxPoint x="500" y="330" as="targetPoint" />
          </mxGeometry>
        </mxCell>
        <mxCell id="QgHLMDbDzzbALMVeo9zM-80" value="" style="endArrow=none;html=1;entryX=1;entryY=0.5;entryDx=0;entryDy=0;" edge="1" parent="WIyWlLk6GJQsqaUBKTNV-1" target="QgHLMDbDzzbALMVeo9zM-30">
          <mxGeometry width="50" height="50" relative="1" as="geometry">
            <mxPoint x="750" y="540" as="sourcePoint" />
            <mxPoint x="580" y="370" as="targetPoint" />
          </mxGeometry>
        </mxCell>
        <mxCell id="QgHLMDbDzzbALMVeo9zM-81" value="" style="endArrow=none;html=1;exitX=0;exitY=0.25;exitDx=0;exitDy=0;entryX=0.867;entryY=0.625;entryDx=0;entryDy=0;entryPerimeter=0;" edge="1" parent="WIyWlLk6GJQsqaUBKTNV-1" source="aOM7xUkGAbq8pq7ayEXu-4" target="QgHLMDbDzzbALMVeo9zM-30">
          <mxGeometry width="50" height="50" relative="1" as="geometry">
            <mxPoint x="770" y="557.0000000000002" as="sourcePoint" />
            <mxPoint x="580" y="490" as="targetPoint" />
          </mxGeometry>
        </mxCell>
        <mxCell id="QgHLMDbDzzbALMVeo9zM-82" value="&lt;font style=&quot;font-size: 14px&quot;&gt;N&lt;/font&gt;" style="text;html=1;strokeColor=none;fillColor=none;align=center;verticalAlign=middle;whiteSpace=wrap;rounded=0;" vertex="1" parent="WIyWlLk6GJQsqaUBKTNV-1">
          <mxGeometry x="650" y="400" width="60" height="40" as="geometry" />
        </mxCell>
        <mxCell id="QgHLMDbDzzbALMVeo9zM-84" value="&lt;span style=&quot;font-size: 14px&quot;&gt;N&lt;/span&gt;" style="text;html=1;strokeColor=none;fillColor=none;align=center;verticalAlign=middle;whiteSpace=wrap;rounded=0;" vertex="1" parent="WIyWlLk6GJQsqaUBKTNV-1">
          <mxGeometry x="380" y="325" width="60" height="40" as="geometry" />
        </mxCell>
      </root>
    </mxGraphModel>
  </diagram>
  <diagram id="13IN7fzXwLD6pHb12F2-" name="Page-2">
    <mxGraphModel dx="1258" dy="1815" grid="1" gridSize="10" guides="1" tooltips="1" connect="1" arrows="1" fold="1" page="1" pageScale="1" pageWidth="1169" pageHeight="827" math="0" shadow="0">
      <root>
        <mxCell id="Vh-5O3JmLq2IwM-CH56J-0" />
        <mxCell id="Vh-5O3JmLq2IwM-CH56J-1" parent="Vh-5O3JmLq2IwM-CH56J-0" />
      </root>
    </mxGraphModel>
  </diagram>
</mxfile>
